# xmcd
#
# Track frame offsets: 
#        150
#        19565
#        35802
#        55272
#        71607
#        90485
#        109167
#        125840
#        142235
#        161722
#
# Disc length: 2492 seconds
#
# Revision: 2
# Processed by: cddbd v1.5.2PL0 Copyright (c) Steve Scherf et al.
# Submitted via: ExactAudioCopy v1.1
#
DISCID=9109ba0a
DTITLE=立花理佐 - Wooh
DYEAR=1989
DGENRE=Pop
TTITLE0=半分恋人
TTITLE1=スロー・ダンスは踊らない
TTITLE2=恋より近くに
TTITLE3=おととい愛して
TTITLE4=夢で逢えたら
TTITLE5=愛が待ちきれない
TTITLE6=最高の一日 ～One Day～
TTITLE7=RASPBERRY
TTITLE8=TOMODACHI
TTITLE9=リサの妖精伝説 -FAIRY TALE-
EXTD=
EXTT0=
EXTT1=
EXTT2=
EXTT3=
EXTT4=
EXTT5=
EXTT6=
EXTT7=
EXTT8=
EXTT9=
PLAYORDER=
